<svg version="1.1" id="Layer_1" xmlns="http://www.w3.org/2000/svg" xmlns:xlink="http://www.w3.org/1999/xlink" x="0px" y="0px"
	 width="100%" viewBox="0 0 1024 1024" enable-background="new 0 0 1024 1024" xml:space="preserve">
<path fill="currentColor" opacity="1.000000" stroke="none" 
	d="
M878.160767,166.438599 
	C899.430542,175.960266 903.809448,199.501816 887.561279,215.761108 
	C885.458191,217.865585 885.347229,219.250870 886.973938,221.637405 
	C905.743042,249.173340 924.434814,276.762054 943.081665,304.380920 
	C944.803467,306.931183 946.561462,307.553223 949.728088,307.003845 
	C961.178528,305.017120 971.181702,311.774536 973.930176,322.853699 
	C976.494873,333.191895 970.231445,344.060150 959.457764,347.399078 
	C956.015137,348.466034 954.552246,349.958954 954.057800,353.800262 
	C949.960327,385.636505 945.541199,417.431335 941.210449,449.237518 
	C940.178833,456.813660 939.417908,464.445190 937.941895,471.934875 
	C937.145874,475.973694 937.728394,478.184479 941.541809,480.371765 
	C952.223816,486.498657 954.722229,496.705750 953.192749,507.963898 
	C951.934631,517.223633 946.349365,523.813354 937.613647,527.185730 
	C930.711060,529.850464 923.404358,530.022461 916.701538,526.822815 
	C912.583923,524.857178 910.411560,525.896667 907.872742,529.009827 
	C893.660461,546.436768 879.336853,563.773010 865.043518,581.133911 
	C859.219788,588.207458 853.394897,595.280334 847.529968,602.319702 
	C845.969543,604.192688 845.035034,605.858032 845.964233,608.595947 
	C850.876343,623.069031 841.510742,634.387146 826.537537,631.933716 
	C823.400940,631.419678 821.560730,632.148621 819.589172,634.275940 
	C798.185364,657.370972 776.746826,680.433777 755.265625,703.456726 
	C753.577332,705.266174 753.266113,706.886047 754.024536,709.282166 
	C757.276794,719.556458 754.832275,728.436218 746.519531,735.325439 
	C738.291443,742.144531 729.129639,742.291443 719.931641,737.595032 
	C716.807739,736.000000 715.382751,737.487305 713.556335,739.263977 
	C698.146851,754.253418 682.731628,769.237000 667.296692,784.200317 
	C662.870667,788.490967 658.457703,792.801758 653.876770,796.923279 
	C651.509155,799.053589 651.346191,800.846069 652.700562,803.821411 
	C660.328735,820.579346 653.560059,838.960999 636.901062,846.062866 
	C626.979065,850.292725 616.986267,849.625122 607.907104,843.317810 
	C605.049805,841.332947 603.232056,841.434753 600.639221,843.867920 
	C577.559326,865.527100 554.390442,887.092285 531.115662,908.541870 
	C528.035278,911.380615 527.022766,913.835083 528.442017,918.035034 
	C530.811646,925.047729 528.083801,932.199341 522.422913,936.170044 
	C517.326538,939.744812 509.238495,939.848755 503.964874,936.407532 
	C498.269501,932.691162 495.381348,925.514404 497.397858,918.426025 
	C498.416412,914.845642 497.585480,912.561523 495.108276,910.041565 
	C475.247894,889.839294 455.463440,869.561890 435.744476,849.221558 
	C433.505005,846.911560 431.526703,846.201050 428.308563,847.245422 
	C420.191589,849.879395 412.685394,848.355469 406.780365,842.024780 
	C400.808899,835.622925 399.422943,827.929077 402.560577,819.774231 
	C403.773682,816.621277 403.317627,814.633972 400.995636,812.299500 
	C380.429138,791.622803 359.965851,770.843506 339.459045,750.107422 
	C338.540710,749.178772 337.496796,748.374329 336.216003,747.253601 
	C329.265045,752.572510 321.545593,754.776672 312.835968,754.395020 
	C297.568054,753.725952 283.215729,739.544250 282.800842,724.230286 
	C282.650787,718.692993 282.630829,713.142212 285.401031,708.151184 
	C287.190460,704.927185 286.402496,702.767212 283.908112,700.306458 
	C268.247894,684.857300 252.656570,669.336975 237.162354,653.721252 
	C228.845963,645.339722 220.768555,636.721069 212.809357,628.444458 
	C203.105423,633.148987 194.540726,634.490479 186.390015,628.082703 
	C177.702057,621.252563 175.671646,609.804749 181.677643,600.312500 
	C183.368515,597.640137 183.033371,596.163574 181.121643,593.905457 
	C152.803741,560.456848 124.552261,526.951721 96.384888,493.376251 
	C93.526268,489.968750 91.071022,488.119446 85.952370,488.939270 
	C71.548943,491.246277 59.160465,484.388275 55.143635,471.776489 
	C50.157272,456.120636 55.230911,441.457947 71.787804,435.163544 
	C76.035721,433.548645 76.790344,431.355499 76.497307,427.339294 
	C75.407928,412.409058 74.541267,397.461426 73.713181,382.513550 
	C72.930740,368.389496 72.307297,354.256592 71.601425,340.128235 
	C71.442490,336.947144 70.363182,334.811035 66.980240,333.367523 
	C61.019215,330.823944 58.512146,324.432770 60.036995,317.834625 
	C61.347374,312.164520 66.092262,308.364929 72.597351,308.764008 
	C77.238609,309.048737 79.762939,307.350403 82.122505,303.465179 
	C97.515762,278.118927 113.101830,252.888931 128.781982,227.718796 
	C130.627045,224.757050 130.070526,223.306244 127.611435,221.163849 
	C118.835556,213.518219 118.074310,200.041916 125.667305,191.593491 
	C133.147797,183.270264 147.167068,182.274277 155.359802,190.206604 
	C158.785904,193.523804 161.233429,193.114883 164.861191,191.369949 
	C189.784470,179.382111 214.755676,167.493011 239.774567,155.706131 
	C242.485504,154.428940 243.373077,153.062683 242.983246,150.016861 
	C241.490295,138.352112 244.837921,128.503967 255.014465,121.835876 
	C263.839478,116.053383 273.404694,115.754578 282.613892,120.328949 
	C291.864258,124.923782 297.437469,132.568054 297.317749,143.414536 
	C297.286469,146.247543 298.137390,147.651825 301.184662,147.911636 
	C314.445709,149.042221 327.688232,150.388153 340.944397,151.578766 
	C352.554962,152.621582 364.184418,153.464127 375.784576,154.607590 
	C379.183228,154.942612 381.232635,154.249146 382.936584,150.939972 
	C387.849701,141.398560 398.086914,137.355713 407.868652,140.613510 
	C417.886963,143.950073 423.529510,153.373657 421.738678,164.248154 
	C421.251709,167.205231 421.447479,169.197693 424.336304,170.909729 
	C446.981781,184.330185 469.569244,197.849396 492.100433,211.460876 
	C495.052795,213.244446 497.053070,213.339981 499.986267,211.058243 
	C508.069427,204.770416 518.251831,204.927979 526.259705,211.324097 
	C529.006592,213.518097 530.878540,213.454712 533.668091,211.574524 
	C549.002869,201.238739 564.403992,190.998444 579.915527,180.930481 
	C583.183105,178.809647 583.417175,176.861603 582.514832,173.176712 
	C579.380310,160.376602 582.739502,148.964371 594.841736,142.506470 
	C606.097595,136.500244 619.844482,139.621628 627.346008,150.042953 
	C629.437988,152.949188 631.384155,153.560837 634.778687,153.003403 
	C666.455322,147.801270 698.160767,142.773788 729.865540,137.743973 
	C732.389099,137.343628 733.888245,136.357895 734.948914,133.782074 
	C738.065674,126.212555 745.967712,122.234062 753.646301,123.913925 
	C761.179993,125.562080 766.614502,132.170914 766.201172,140.339615 
	C765.973816,144.834717 767.640930,146.813187 771.522644,148.513580 
	C793.494263,158.138168 815.392639,167.932312 837.232361,177.852997 
	C840.819580,179.482513 842.781189,179.313400 845.440002,175.910172 
	C853.795654,165.215027 865.112671,163.164490 878.160767,166.438599 
M446.030121,712.448486 
	C456.652771,721.298462 467.341187,730.071472 477.855682,739.048218 
	C480.783417,741.547729 482.887939,741.793701 485.903870,739.066040 
	C489.653961,735.674438 494.343201,733.703064 499.443665,733.163940 
	C502.404205,732.851013 503.796875,731.758240 503.841797,728.497559 
	C503.974792,718.844910 504.390381,709.195129 504.768005,699.547058 
	C505.340851,684.910950 506.024384,670.279114 506.567108,655.642029 
	C507.005035,643.829773 507.273285,632.011414 507.688416,620.198242 
	C507.785095,617.447144 507.377136,615.495239 504.144897,614.682495 
	C499.739960,613.574890 496.430634,610.563049 494.411102,606.606750 
	C492.723724,603.301147 490.487244,602.334351 486.903687,602.317078 
	C432.262604,602.053650 377.622162,601.659973 322.981567,601.299561 
	C321.815552,601.291870 320.648254,601.289612 319.483582,601.336487 
	C318.298004,601.384094 317.092072,601.500549 316.636292,602.872803 
	C316.183136,604.237000 317.076752,605.105896 317.965698,605.853394 
	C320.132172,607.675110 322.385010,609.393860 324.559814,611.205933 
	C364.872620,644.795227 405.179047,678.392151 446.030121,712.448486 
M303.556702,630.896118 
	C303.040161,627.105286 302.087067,623.310547 302.120667,619.524597 
	C302.160187,615.073425 300.128082,613.350891 296.170593,611.918823 
	C287.806488,608.892151 283.351227,598.711914 288.230164,591.464478 
	C292.265228,585.470581 290.917908,581.303955 287.679230,576.354187 
	C286.682190,574.830383 285.980682,573.111267 285.165161,571.470947 
	C258.623230,518.085999 232.087326,464.698090 205.515106,411.328247 
	C205.076538,410.447418 205.030060,409.037201 203.371719,408.898071 
	C202.994888,432.016785 202.955917,454.994629 202.544983,477.969208 
	C201.937317,511.944061 202.400940,545.936890 202.092758,579.919250 
	C202.033493,586.454468 201.816574,592.235901 209.995773,593.658875 
	C210.295593,593.711060 210.554642,594.008789 210.828293,594.198425 
	C219.316162,600.080261 221.072708,608.094482 218.356537,619.510559 
	C217.691956,622.303772 217.193771,624.306396 219.551819,626.633911 
	C242.785995,649.566956 265.921600,672.599976 289.051056,695.638916 
	C290.881165,697.461853 292.356567,697.900635 294.557556,696.031311 
	C298.140259,692.988647 302.319427,690.833374 306.900482,689.703064 
	C309.760284,688.997314 310.327240,687.722107 309.943176,684.740723 
	C307.672180,667.111816 305.709991,649.443237 303.556702,630.896118 
M697.305237,502.924591 
	C701.873413,485.888885 706.244995,468.796417 711.134705,451.853485 
	C712.524780,447.037018 711.454590,445.581635 706.717163,444.617004 
	C687.001526,440.602478 667.361877,436.214264 647.698547,431.943359 
	C620.887695,426.119965 594.068359,420.334045 567.285950,414.382080 
	C563.478638,413.535980 561.041687,413.959717 559.454895,417.938477 
	C558.491699,420.353699 556.933960,422.815460 554.986328,424.493835 
	C551.208557,427.749298 552.325745,430.209534 554.869019,433.626831 
	C567.498901,450.596863 579.879456,467.752380 592.347412,484.842926 
	C613.356384,513.641113 634.396667,542.416565 655.324219,571.273743 
	C657.393921,574.127686 659.358582,575.351929 662.811401,573.788635 
	C666.023987,572.334106 669.570496,571.452148 673.049744,572.123535 
	C677.322388,572.948120 678.830627,571.224548 679.861877,567.298157 
	C685.440552,546.057373 691.273743,524.883423 697.305237,502.924591 
M347.920898,534.439026 
	C356.432373,523.127747 364.898682,511.782013 373.493073,500.534088 
	C375.229614,498.261414 375.839020,496.508881 373.770630,494.008881 
	C370.405579,489.941589 369.265137,484.952576 370.321747,479.886688 
	C371.176025,475.790680 369.436737,474.359222 366.085785,472.897766 
	C316.330811,451.198517 266.627319,429.381256 216.905182,407.606659 
	C214.388351,406.504456 211.812912,405.536072 208.954971,404.380127 
	C208.970566,407.861572 210.629929,410.042969 211.780945,412.361755 
	C238.215271,465.614807 264.712738,518.836548 291.127838,572.099121 
	C294.070526,578.032654 296.069275,583.697876 305.009766,583.472412 
	C309.496735,583.359192 311.802856,582.743835 314.266357,579.409302 
	C325.250244,564.541626 336.403381,549.799011 347.920898,534.439026 
M163.773041,565.736206 
	C170.662781,573.870605 177.976059,581.693054 184.282913,590.256714 
	C188.045776,595.366089 191.138260,591.616882 194.640366,591.110840 
	C198.360321,590.573242 197.729156,587.794922 197.746841,585.381104 
	C197.864105,569.387085 197.647079,553.384460 198.097824,537.400391 
	C199.267410,495.924377 198.310287,454.440643 198.839813,412.963837 
	C198.917740,406.859253 194.703720,403.820435 189.597549,406.420441 
	C163.031845,419.947540 136.541000,433.621582 109.997726,447.192902 
	C107.674507,448.380737 106.894211,449.810730 107.716721,452.390778 
	C109.364845,457.560547 109.533211,462.830353 108.424553,468.179230 
	C106.903244,475.519135 102.528381,480.963379 96.418808,485.721161 
	C118.941216,512.465332 141.136108,538.820618 163.773041,565.736206 
M415.788727,471.351562 
	C414.773834,471.924011 413.813660,472.644287 412.734711,473.043701 
	C407.675049,474.916748 404.808777,477.915985 406.197571,483.822906 
	C406.688232,485.909973 405.842133,488.215332 404.714844,490.038055 
	C402.931458,492.921661 403.840088,494.707428 406.130890,496.821747 
	C422.036255,511.501495 437.847229,526.283875 453.647095,541.077454 
	C467.502594,554.050598 481.522461,566.860779 495.009796,580.207703 
	C499.660522,584.809998 503.335876,580.535828 507.409027,580.430237 
	C510.488068,580.350403 509.734253,577.154663 509.976074,575.240234 
	C511.618347,562.236755 513.277832,549.230103 514.566956,536.188416 
	C517.706360,504.427490 520.684448,472.650482 524.570923,440.968964 
	C524.937134,437.983643 524.179932,436.293060 520.946045,435.743591 
	C514.333984,434.620148 508.680298,431.325684 504.086639,426.614258 
	C501.606049,424.070099 499.946594,423.942963 496.923523,425.662781 
	C470.158417,440.889709 443.286621,455.929047 415.788727,471.351562 
M424.338013,522.168152 
	C416.668152,515.011047 408.973145,507.880524 401.347534,500.676605 
	C399.630493,499.054565 398.095184,498.165924 395.643005,499.373932 
	C391.431946,501.448395 386.892944,501.620514 382.522095,500.066864 
	C379.587891,499.023865 378.021332,499.905579 376.277069,502.233856 
	C356.011963,529.283813 335.776184,556.357910 315.202484,583.172302 
	C311.732971,587.694275 315.748260,590.128906 316.407043,593.482178 
	C316.982941,596.413635 319.642517,595.845276 321.726257,595.883911 
	C336.540985,596.158203 351.355835,596.519165 366.172058,596.604736 
	C402.809784,596.816345 439.448334,596.887024 476.086426,597.043030 
	C479.078827,597.055725 482.070892,597.397583 485.062073,597.382812 
	C487.551208,597.370544 491.175598,599.074768 492.070465,595.694092 
	C493.031311,592.064087 495.740784,588.445984 491.071808,584.214905 
	C468.741241,563.978516 446.885437,543.218262 424.338013,522.168152 
M719.940979,531.390991 
	C711.206726,545.369812 702.542603,559.393311 693.689148,573.296265 
	C691.469666,576.781433 690.832458,579.474854 693.966858,582.970581 
	C697.436279,586.839966 699.618896,591.612732 699.344116,597.094299 
	C699.216553,599.638672 700.426086,600.543945 702.886719,600.781189 
	C715.456238,601.992676 728.002686,603.446472 740.575012,604.625244 
	C761.106262,606.550354 781.690735,607.987183 802.169189,610.352661 
	C809.375122,611.185059 814.929504,611.119202 818.783875,603.877502 
	C820.013794,601.566650 820.634705,600.048340 819.652832,597.609558 
	C802.621887,555.307983 785.673767,512.973083 768.646240,470.670166 
	C767.779419,468.516663 767.643188,465.643158 764.241699,465.315918 
	C760.812988,464.986023 759.681396,467.418335 758.273682,469.685211 
	C745.626343,490.051941 732.967346,510.411469 719.940979,531.390991 
M903.264404,526.796387 
	C906.999634,523.345398 908.145874,519.983582 904.383057,515.439270 
	C901.455139,511.903198 900.757080,507.041473 901.250427,502.585419 
	C901.759888,497.983368 899.832031,496.624054 895.874817,495.522736 
	C856.119080,484.458191 816.410217,473.225342 776.691528,462.027954 
	C775.425598,461.671082 774.050293,460.809692 772.973511,462.032684 
	C771.563232,463.634369 772.948425,465.200836 773.531677,466.657410 
	C789.992981,507.766754 806.516846,548.851074 822.942627,589.974670 
	C824.949097,594.998047 826.339233,600.288269 833.620605,599.028687 
	C834.657654,598.849304 836.035461,599.324707 836.943726,599.950073 
	C840.397705,602.328186 842.407715,600.864075 844.755127,597.988342 
	C864.029968,574.375610 883.452759,550.883728 903.264404,526.796387 
M359.804047,464.619781 
	C362.543671,465.837128 365.223938,467.222137 368.041351,468.219879 
	C370.388519,469.051117 372.768188,471.902679 375.318329,469.604980 
	C378.192902,467.014893 375.326263,464.264801 374.356323,461.910126 
	C359.448212,425.719299 344.422852,389.576691 329.341644,353.457550 
	C327.832092,349.842255 326.595001,346.027893 324.028961,342.726105 
	C323.083832,343.084442 322.300934,343.328552 321.562317,343.668854 
	C286.161774,359.978668 250.762436,376.291107 215.375259,392.629883 
	C213.482086,393.503967 211.249634,394.017334 211.280289,396.970184 
	C211.313431,400.160736 213.836136,400.642578 215.849228,401.526703 
	C263.585510,422.492310 311.344055,443.407257 359.804047,464.619781 
M510.331665,638.505066 
	C509.744080,655.147888 509.144409,671.790344 508.572693,688.433716 
	C508.115326,701.747681 507.679169,715.062439 507.265320,728.377747 
	C507.192963,730.706177 506.937714,732.996826 510.283600,733.687439 
	C516.897400,735.052612 522.312134,738.479919 526.065613,744.201660 
	C527.544556,746.456116 529.199524,746.681091 531.569275,745.619080 
	C552.996277,736.016968 574.440552,726.452881 595.921509,716.972107 
	C599.048462,715.592041 600.048218,713.832092 599.228638,710.363525 
	C594.028259,688.354065 588.921448,666.320984 584.037354,644.239624 
	C583.252869,640.692810 581.422668,638.846130 578.442627,637.270691 
	C561.511719,628.320068 544.648254,619.241821 527.759094,610.212219 
	C525.046936,608.762207 511.579468,615.402222 511.024414,618.556458 
	C510.651062,620.678284 510.493378,622.855103 510.438843,625.012390 
	C510.333649,629.175049 510.369751,633.341187 510.331665,638.505066 
M348.489258,724.654236 
	C349.807495,727.503052 352.736115,727.041138 354.996796,727.522888 
	C393.870880,735.806641 432.771515,743.965820 471.665894,752.154541 
	C473.929993,752.631165 476.180511,753.531982 477.719055,750.632141 
	C479.419037,747.427979 477.088501,746.126221 475.193787,744.548584 
	C460.986664,732.718750 446.768646,720.901978 432.567749,709.064514 
	C393.798859,676.747986 355.042664,644.416138 316.251556,612.126221 
	C314.595703,610.747864 313.217285,608.630798 310.246826,610.471741 
	C307.337250,612.274902 307.464325,614.365845 307.846039,617.239868 
	C309.179626,627.281555 310.143280,637.371643 311.378845,647.427246 
	C312.916931,659.944885 314.629639,672.441223 316.157471,684.960022 
	C316.437256,687.252686 317.122162,688.335266 319.657806,688.818970 
	C338.517792,692.416443 347.942108,704.027527 348.489258,724.654236 
M527.284424,774.948730 
	C523.896973,780.881714 518.752319,784.821106 512.377625,786.759521 
	C509.150848,787.740784 508.780670,789.286438 508.966217,792.122375 
	C509.802002,804.896790 510.461060,817.682739 511.193298,830.463928 
	C512.562134,854.357300 513.954590,878.249268 515.283081,902.144897 
	C515.410950,904.444397 515.574585,906.213928 518.382812,907.009827 
	C521.066589,907.770508 523.183655,909.410950 525.967896,906.652893 
	C532.347412,900.333374 539.132568,894.424988 545.706848,888.300110 
	C562.877075,872.303589 580.008972,856.265930 597.195740,840.287231 
	C599.231567,838.394470 600.338867,836.720825 598.574280,833.890686 
	C593.645874,825.986267 592.449585,817.443359 595.160889,808.497742 
	C595.937866,805.934265 595.343628,804.503906 592.924500,803.343079 
	C572.521912,793.552612 552.155884,783.685974 531.784729,773.830078 
	C530.247681,773.086426 528.742065,772.144104 527.284424,774.948730 
M607.672119,293.104187 
	C589.728577,319.363861 571.814026,345.643494 553.789062,371.847229 
	C552.271484,374.053436 552.475098,375.416321 553.962463,377.527405 
	C556.719543,381.440582 559.653381,382.752411 563.957031,379.968170 
	C565.468506,378.990326 567.315979,378.531067 569.011841,377.839294 
	C622.040466,356.207825 675.070984,334.581238 728.090759,312.928131 
	C729.969360,312.160919 732.573120,311.983734 732.111755,308.807617 
	C731.704956,306.006592 729.486633,305.635925 727.370361,305.191406 
	C721.672241,303.994446 715.957581,302.875946 710.253662,301.706146 
	C683.701294,296.260590 657.153748,290.791016 630.590515,285.399323 
	C628.924561,285.061157 626.792053,283.921814 625.518066,285.948425 
	C621.836731,291.804443 616.505493,292.779144 610.277283,291.541595 
	C609.395508,291.366394 608.683716,291.869080 607.672119,293.104187 
M578.098877,578.523682 
	C578.956482,582.426025 579.806458,586.330017 580.674805,590.229980 
	C581.147644,592.353699 582.081055,593.823303 584.643127,593.858032 
	C603.465576,594.113464 622.287231,594.437622 641.108704,594.762939 
	C643.136292,594.797974 644.737366,594.258240 645.397339,592.147095 
	C647.222473,586.308899 650.394226,581.344360 655.508423,577.416992 
	C653.685791,574.780640 652.140320,572.435730 650.486755,570.169617 
	C623.872498,533.694519 597.244568,497.229462 570.619568,460.762177 
	C564.233398,452.015289 557.879150,443.244751 551.428772,434.545410 
	C550.339478,433.076263 549.461304,430.641205 546.797241,431.968933 
	C544.378723,433.174316 545.287659,435.363190 545.488892,437.286774 
	C545.557617,437.944031 545.786804,438.584076 545.936829,439.233307 
	C556.602417,485.389465 567.267395,531.545776 578.098877,578.523682 
M375.258820,445.346649 
	C377.267731,450.284332 379.564545,455.129089 381.197998,460.188019 
	C382.601318,464.534241 385.493500,464.961884 389.310303,464.841278 
	C393.249878,464.716797 393.148987,461.778320 393.709045,459.301941 
	C402.217499,421.680481 410.651398,384.042114 419.240753,346.439209 
	C419.985840,343.177338 418.948853,341.531769 416.297455,339.982422 
	C404.501587,333.089478 392.760529,326.101807 381.051147,319.062744 
	C379.167999,317.930756 377.663788,317.690094 375.540100,318.694153 
	C361.988312,325.101379 348.393158,331.421814 334.712036,337.546936 
	C331.663147,338.911957 331.237061,340.365173 332.464264,343.280029 
	C346.680603,377.046875 360.810455,410.850189 375.258820,445.346649 
M421.758209,353.139709 
	C419.966217,361.602875 418.252014,370.083405 416.367950,378.525970 
	C410.208527,406.126373 403.994659,433.714569 397.778320,461.302216 
	C397.173676,463.985596 396.693970,466.421082 399.388153,468.495392 
	C402.189636,470.652252 404.083588,468.599792 406.135529,467.448914 
	C434.758850,451.394867 463.321075,435.231201 492.010925,419.297241 
	C495.617889,417.294006 496.625336,415.482758 495.192902,411.480835 
	C492.956329,405.232300 492.940918,398.625122 494.971344,392.314911 
	C496.281769,388.242340 494.930420,386.352875 491.516388,384.358765 
	C470.801880,372.259369 450.212677,359.945587 429.562347,347.735992 
	C427.900055,346.753204 426.321747,345.363770 423.693665,345.788300 
	C423.151123,347.908691 422.582062,350.132568 421.758209,353.139709 
M868.951355,273.265320 
	C868.212402,258.468475 867.461304,243.672241 866.742798,228.874420 
	C866.559265,225.093552 865.927551,222.147827 860.976196,221.959381 
	C858.085693,221.849380 855.081177,220.430283 852.804321,218.475327 
	C849.688538,215.800171 847.657776,217.022354 845.270142,219.481339 
	C840.165833,224.738312 834.886963,229.827408 829.629944,234.934174 
	C810.275085,253.735764 790.888367,272.504700 771.557434,291.330872 
	C770.216431,292.636902 768.269958,293.646362 768.725952,296.201050 
	C769.892334,302.734985 771.483765,304.200775 778.210938,304.748749 
	C781.025146,304.977997 783.825745,305.380432 786.630127,305.724060 
	C807.406982,308.269409 828.179565,310.850525 848.961731,313.351898 
	C856.149231,314.217041 863.360046,314.888092 871.068420,315.701447 
	C870.840698,301.325836 870.055054,287.760254 868.951355,273.265320 
M638.910950,171.048904 
	C634.836243,169.655090 631.749939,170.144150 630.660156,175.059875 
	C630.381897,176.315247 629.644226,177.559509 628.836975,178.588760 
	C626.925537,181.025635 627.261108,182.905167 629.487671,185.042313 
	C650.880005,205.575821 672.209290,226.175064 693.532532,246.780457 
	C695.244690,248.435043 696.981445,249.117065 699.377380,248.308441 
	C714.362549,243.250946 729.364990,238.244186 744.386230,233.294922 
	C746.882263,232.472534 747.772888,230.948135 747.552917,228.431213 
	C746.361572,214.799454 746.878357,201.127975 746.748840,187.473907 
	C746.715637,183.980423 745.748718,182.489487 742.011230,182.177048 
	C730.072754,181.179031 718.161621,179.838913 706.250366,178.534531 
	C684.087891,176.107529 661.932861,173.612549 638.910950,171.048904 
M435.317047,749.354675 
	C407.665100,743.608704 380.010284,737.876465 352.366150,732.093140 
	C349.899109,731.577087 347.203339,730.339539 346.181213,733.857544 
	C345.171326,737.333313 340.314331,739.992737 345.065277,744.704346 
	C365.743835,765.211304 386.137634,786.006653 406.511353,806.818237 
	C408.882721,809.240662 410.844818,809.612671 413.916565,808.350342 
	C420.101898,805.808594 426.438080,806.184998 432.170929,809.566284 
	C435.089691,811.287842 436.845917,810.702820 439.146240,808.784058 
	C450.516693,799.298584 461.879395,789.796936 473.480835,780.598633 
	C477.725586,777.233154 481.004700,774.351257 477.302795,768.529602 
	C476.250824,766.875183 476.287476,764.323853 476.363800,762.203247 
	C476.487549,758.763123 474.773773,757.736267 471.702820,757.113525 
	C459.825989,754.705261 448.001678,752.037842 435.317047,749.354675 
M76.241989,351.586670 
	C76.565216,356.895569 76.930832,362.202301 77.204163,367.513763 
	C78.263649,388.101898 79.344803,408.689209 80.280762,429.283081 
	C80.424011,432.434998 81.518822,433.686523 84.723816,433.781128 
	C88.958504,433.906097 93.113045,435.267303 96.282448,437.953186 
	C99.732925,440.877319 101.816299,439.831940 104.651016,437.201172 
	C123.808990,419.421600 143.099869,401.785248 162.321930,384.074524 
	C163.503983,382.985443 165.021820,382.069550 165.255707,380.190155 
	C164.486008,378.508362 162.754913,378.072784 161.371689,377.240814 
	C136.977966,362.568909 112.536224,347.976471 88.198578,333.212341 
	C84.928940,331.228821 82.600250,330.341797 78.978203,333.020905 
	C76.349861,334.964996 74.976089,336.524017 75.321396,339.704376 
	C75.715767,343.336761 75.916191,346.990234 76.241989,351.586670 
M499.870636,787.641663 
	C495.385529,787.514221 491.276672,786.013489 487.865417,783.276123 
	C485.002960,780.979126 483.025909,781.592529 480.509125,783.680969 
	C467.952301,794.100281 455.329620,804.441345 442.638489,814.696655 
	C440.559875,816.376160 440.334961,817.888123 441.274078,820.262268 
	C443.044464,824.737854 443.689850,829.985535 441.372803,833.849487 
	C437.259155,840.709595 439.864288,844.785217 445.118256,848.786377 
	C446.295349,849.682861 447.190125,850.946106 448.234680,852.021179 
	C465.528290,869.820984 482.868042,887.576416 500.072205,905.462280 
	C502.513733,908.000549 504.477844,908.405945 507.816650,907.021301 
	C511.234467,905.603760 510.005432,903.350647 509.891876,901.272949 
	C508.911499,883.335266 507.826477,865.403320 506.811218,847.467529 
	C505.767578,829.030762 504.742950,810.592712 503.779602,792.151611 
	C503.662384,789.907715 503.179504,788.212402 499.870636,787.641663 
M289.426117,218.167984 
	C289.753845,220.307480 290.230347,222.436768 290.377960,224.588623 
	C290.674194,228.907150 292.286041,231.318237 297.186188,230.757416 
	C303.561920,230.027710 309.554596,231.791473 314.648804,235.519150 
	C318.203857,238.120544 320.222931,237.232178 322.982361,234.389236 
	C341.784973,215.017441 360.435059,195.477646 379.842957,176.725403 
	C385.770111,170.998489 380.552887,166.701370 380.242310,161.910522 
	C380.049377,158.933701 375.890656,159.653580 373.399902,159.413712 
	C361.966919,158.312714 350.516663,157.389465 339.071289,156.418121 
	C326.472290,155.348877 313.866486,154.354706 301.275787,153.196274 
	C298.149689,152.908646 296.473541,153.972885 295.150421,156.875244 
	C292.982361,161.631149 289.787170,165.820190 285.070190,168.314728 
	C281.398773,170.256302 281.045410,172.777344 281.788757,176.536240 
	C284.468933,190.089249 286.812073,203.708908 289.426117,218.167984 
M947.321594,359.013794 
	C947.588013,356.872223 947.564575,354.641968 948.186707,352.609283 
	C949.191223,349.327026 948.111633,347.665771 944.969055,346.621796 
	C941.740479,345.549225 939.176147,343.320343 937.132568,340.648346 
	C935.799927,338.905853 934.496155,338.509674 932.448242,339.316467 
	C919.140320,344.559265 905.816406,349.762634 892.450745,354.855713 
	C890.291260,355.678589 889.789368,356.866669 890.015015,359.001434 
	C890.520142,363.780792 889.000854,368.141602 885.341125,371.078705 
	C882.600403,373.278320 882.821838,375.084869 883.891479,377.878204 
	C895.843384,409.092102 907.768066,440.317108 919.475891,471.622986 
	C921.074280,475.896851 923.486267,476.880066 927.687683,476.761871 
	C932.186584,476.635315 931.542603,473.539001 931.983582,470.923981 
	C932.369446,468.636200 932.602783,466.322937 932.915710,464.022583 
	C937.639526,429.303345 942.365356,394.584381 947.321594,359.013794 
M695.792236,672.277832 
	C697.923462,671.101746 700.542114,670.735046 702.437500,668.180481 
	C697.084351,657.807617 691.166199,647.552612 686.447449,636.772644 
	C683.270874,629.515564 679.458740,626.401733 671.073486,627.087952 
	C659.443115,628.039673 648.481079,619.651306 645.889282,608.450989 
	C644.676880,603.211365 642.076599,602.396301 637.657898,602.395569 
	C620.837769,602.392822 604.017578,602.211243 587.197388,602.117432 
	C586.070740,602.111145 584.824707,601.901062 583.636780,603.698975 
	C585.786316,612.876526 588.325562,622.490784 590.199768,632.232910 
	C591.150757,637.176086 593.656372,640.008606 597.953186,642.273010 
	C621.812317,654.846436 645.580505,667.592834 669.331970,680.369080 
	C671.919556,681.760986 674.211060,681.993225 676.881348,680.748291 
	C682.914856,677.935242 689.025391,675.287537 695.792236,672.277832 
M906.505005,486.082336 
	C907.114319,483.914734 905.562561,482.630981 904.394287,481.306641 
	C881.471313,455.320465 858.477295,429.396790 835.619263,403.353729 
	C833.061340,400.439545 831.217041,400.262573 828.275818,402.756042 
	C811.506287,416.972870 794.615784,431.046997 777.763672,445.166351 
	C775.799866,446.811737 774.441467,448.338898 775.058899,451.471924 
	C775.715027,454.801758 777.863708,455.125061 780.272888,455.806458 
	C819.837830,466.996338 859.409546,478.162689 898.931274,489.503326 
	C902.480835,490.521881 904.660278,489.948151 906.505005,486.082336 
M740.048584,322.579132 
	C737.913147,320.738464 736.176147,319.253143 732.686035,320.686859 
	C677.425476,343.387207 622.078613,365.877441 566.767944,388.455872 
	C565.251709,389.074829 563.213257,389.319214 562.745178,391.797180 
	C563.580017,392.008392 564.202942,392.349274 564.781433,392.285736 
	C583.132446,390.271576 601.484558,388.265106 619.825012,386.157501 
	C638.138916,384.052979 656.442810,381.860565 674.746765,379.670868 
	C692.569824,377.538696 710.381226,375.306763 728.213501,373.255646 
	C731.301514,372.900452 732.911987,371.660858 733.694214,368.597534 
	C736.944885,355.868103 740.231995,343.143280 743.846619,330.514343 
	C744.936096,326.707855 744.125671,324.467926 740.048584,322.579132 
M728.953308,385.112823 
	C729.775391,381.353119 726.931458,382.327332 725.257629,382.521881 
	C710.412598,384.247742 695.587280,386.141846 680.747437,387.913300 
	C659.962524,390.394470 639.171997,392.829254 618.380310,395.253204 
	C601.695984,397.198242 585.002808,399.068115 568.323730,401.056854 
	C566.361328,401.290802 563.583679,400.753845 563.416077,404.005096 
	C563.249023,407.245239 566.027771,407.018585 567.979126,407.442932 
	C615.097351,417.690094 662.234680,427.849670 709.336304,438.172333 
	C713.050049,438.986206 714.796692,438.363068 715.792725,434.511475 
	C719.997437,418.252228 724.440002,402.054535 728.953308,385.112823 
M546.126343,593.191223 
	C552.778259,593.373352 559.429199,593.623413 566.082397,593.717224 
	C571.965027,593.800232 572.390991,593.201904 571.018799,587.374023 
	C567.632263,572.990417 564.139771,558.631287 560.836121,544.228760 
	C552.999146,510.061920 545.271790,475.869873 537.402039,441.710632 
	C536.900146,439.532043 537.093262,436.052338 533.389282,436.510498 
	C530.356018,436.885651 530.568420,439.720734 530.340332,442.030426 
	C529.557190,449.960876 528.797852,457.894165 527.941711,465.816895 
	C524.104065,501.329987 520.238037,536.839966 516.377258,572.350525 
	C515.838867,577.302185 515.066345,582.317505 521.310791,584.553223 
	C521.880127,584.757019 522.515564,585.363831 522.714233,585.926819 
	C525.551514,593.968262 532.232056,593.186890 538.694885,593.006958 
	C540.855469,592.946838 543.021423,593.076721 546.126343,593.191223 
M545.107544,244.288345 
	C563.300293,253.267639 581.497681,262.237396 599.682861,271.232086 
	C605.130127,273.926453 610.888306,270.482178 610.638611,264.418182 
	C609.687683,241.328751 608.581970,218.245712 607.622925,195.156601 
	C607.515076,192.560104 606.756470,191.317871 603.960571,191.015549 
	C598.903076,190.468658 594.135681,188.643845 590.508911,185.050766 
	C587.723633,182.291428 585.645020,182.831467 582.802795,184.762436 
	C568.908203,194.202240 555.085693,203.769821 540.861633,212.692627 
	C535.127319,216.289810 533.747009,220.310074 532.833740,227.008469 
	C531.438171,237.242767 535.846436,241.119354 543.988403,243.738724 
	C544.145813,243.789368 544.292847,243.872284 545.107544,244.288345 
M602.359314,291.879547 
	C603.636597,289.800201 605.471619,287.947754 603.728394,285.121979 
	C602.094055,282.472656 599.632019,283.515442 597.448608,283.324158 
	C596.131714,283.208801 594.788635,283.337067 593.460571,283.412933 
	C572.223206,284.626373 550.989868,285.916382 529.747559,287.034668 
	C521.829773,287.451477 521.819763,287.270782 522.254333,295.267395 
	C522.290466,295.931854 522.321777,296.597260 522.384644,297.259460 
	C524.458191,319.098755 526.610779,340.931061 528.523071,362.784424 
	C528.782288,365.746338 529.808167,366.891205 532.590698,367.180542 
	C535.893982,367.524017 539.361877,367.803833 542.210327,369.547119 
	C546.302917,372.051910 548.480286,370.717133 550.970703,367.040070 
	C567.854797,342.110962 584.948120,317.323608 602.359314,291.879547 
M171.288651,290.147949 
	C171.848770,292.578735 173.338837,292.672424 175.462830,292.111694 
	C193.169006,287.437408 210.888474,282.812531 228.628632,278.269104 
	C231.197021,277.611298 232.535492,276.271149 233.215836,273.713013 
	C235.225449,266.156616 237.275848,258.602814 239.635269,251.150925 
	C240.990616,246.870270 239.598526,244.993973 235.515839,243.528992 
	C213.732346,235.712433 191.951508,227.871017 170.367401,219.526962 
	C163.987015,217.060410 158.864853,215.470291 153.990448,222.027191 
	C152.375381,224.199722 151.067657,225.533600 151.994736,228.445236 
	C158.456833,248.740372 164.753616,269.088104 171.288651,290.147949 
M416.890503,225.431625 
	C413.610168,212.538086 410.171570,199.681564 407.141266,186.729538 
	C406.168884,182.573593 404.433746,180.692917 400.061890,181.165131 
	C397.576324,181.433594 394.893402,180.829788 392.869781,179.452667 
	C389.213684,176.964661 387.081482,178.578949 384.512787,181.228088 
	C367.016754,199.272079 349.401581,217.200638 331.814819,235.156601 
	C324.340515,242.787796 324.391663,242.750732 328.433075,252.305969 
	C329.502167,254.833603 330.594910,255.669540 333.638550,255.139725 
	C358.692322,250.778778 383.803253,246.747513 408.869873,242.458450 
	C412.567596,241.825760 416.455597,241.688965 420.019684,239.898392 
	C420.144470,235.009018 418.020081,230.737564 416.890503,225.431625 
M250.785126,209.433701 
	C253.380661,200.150116 255.995865,190.871964 258.566071,181.581375 
	C261.041199,172.634506 261.020508,172.629227 253.512222,167.115280 
	C253.110016,166.819916 252.628159,166.578171 252.337143,166.194763 
	C249.680130,162.694183 246.760651,163.213989 243.157639,164.934143 
	C217.493164,177.186768 191.749756,189.274139 166.019272,201.388184 
	C163.811951,202.427399 161.997849,203.485352 162.047440,206.433899 
	C162.100128,209.566879 164.294327,210.126343 166.506668,210.940430 
	C190.225784,219.668350 213.935074,228.422928 237.657181,237.142670 
	C239.162048,237.695816 240.659561,238.631805 242.937759,237.704697 
	C245.440979,228.744888 248.027710,219.486160 250.785126,209.433701 
M215.039322,389.325806 
	C221.983643,386.108276 228.923355,382.880768 235.873108,379.675018 
	C263.523193,366.920685 291.159180,354.135437 318.852020,341.474487 
	C322.043579,340.015320 323.076233,338.559540 321.533264,335.051880 
	C317.515747,325.918762 313.768890,316.661865 310.129547,307.369965 
	C309.027618,304.556580 307.571533,303.604919 304.530212,303.926666 
	C296.099945,304.818542 287.645325,305.701385 279.180908,305.964386 
	C274.229553,306.118225 270.949341,307.741699 267.970734,311.802399 
	C252.322464,333.135498 236.377090,354.250580 220.558563,375.459015 
	C216.859085,380.418976 213.251450,385.447449 209.370972,390.760132 
	C211.802948,391.132050 213.013367,390.078430 215.039322,389.325806 
M872.221008,237.260880 
	C873.591003,262.009766 874.998474,286.756683 876.282104,311.510040 
	C876.437439,314.504700 876.792419,316.469971 880.486023,316.850372 
	C894.712585,318.315704 908.946472,319.810394 923.101013,321.830414 
	C929.388855,322.727753 934.531311,322.901489 936.463074,315.414642 
	C936.614746,314.826660 937.174683,314.255066 937.688110,313.863708 
	C941.015625,311.327148 940.206848,308.923401 938.105530,305.847839 
	C919.795532,279.049957 901.491699,252.244965 883.567688,225.189240 
	C880.723389,220.895828 878.118164,221.136169 874.148010,222.278793 
	C869.817932,223.525024 872.250061,226.573837 872.053955,228.837158 
	C871.839783,231.309341 872.117310,233.824112 872.221008,237.260880 
M450.913879,291.117432 
	C445.408875,292.389252 444.325317,295.089874 447.768372,299.325409 
	C466.127197,321.909607 484.668671,344.347992 502.782532,367.126587 
	C506.444519,371.731598 509.342590,373.489960 514.417480,369.710724 
	C515.933044,368.582123 518.108887,368.061890 520.048035,367.840942 
	C523.569458,367.439728 523.833557,365.375214 523.504089,362.557861 
	C522.848450,356.950592 522.278992,351.331909 521.763733,345.709747 
	C520.171204,328.331757 518.490967,310.960022 517.141663,293.562805 
	C516.784119,288.952148 514.884888,287.706116 510.539825,287.961487 
	C490.953003,289.112671 471.353180,290.043396 450.913879,291.117432 
M146.572418,230.850525 
	C145.569611,224.144791 139.885010,227.166367 136.268677,225.902252 
	C132.923050,224.732773 132.361160,227.752182 131.266983,229.530167 
	C115.217812,255.609253 99.258423,281.743530 83.233749,307.837738 
	C82.098846,309.685760 81.445930,311.158203 83.130463,313.158905 
	C84.609367,314.915405 85.914932,315.523346 88.239647,314.908173 
	C112.678062,308.441071 137.133972,302.038635 161.619110,295.750977 
	C165.233490,294.822845 166.007339,293.311127 164.869934,289.737335 
	C158.716537,270.402954 152.782501,250.998764 146.572418,230.850525 
M699.206787,640.347473 
	C702.460449,646.727234 706.053284,652.962585 708.852966,659.535706 
	C710.843384,664.208862 712.994446,664.763306 717.503540,662.715454 
	C745.098999,650.182495 772.836670,637.962952 800.478149,625.530457 
	C804.661072,623.649048 809.128052,622.242798 813.393127,619.105835 
	C806.926941,617.080261 800.762329,617.362610 794.731323,616.765076 
	C765.933105,613.911682 737.106689,611.324524 708.339172,608.193787 
	C702.017395,607.505859 697.470703,607.895142 695.501953,614.831665 
	C695.076782,616.329590 693.788330,617.737183 692.573364,618.823975 
	C690.094666,621.041138 690.309937,623.320984 691.720520,625.952148 
	C694.159485,630.501526 696.491943,635.107910 699.206787,640.347473 
M175.468460,371.957581 
	C178.419006,369.268433 181.316711,366.518036 184.338608,363.911591 
	C186.360718,362.167450 186.781281,360.376007 185.930511,357.757477 
	C181.822800,345.114655 177.824524,332.434082 173.998810,319.703339 
	C172.953644,316.225342 171.232864,314.920807 167.568542,315.263702 
	C155.333923,316.408630 143.073257,317.272034 130.828339,318.311005 
	C117.586021,319.434601 104.347481,320.605286 91.114098,321.829041 
	C88.877518,322.035889 86.486954,321.977356 85.751587,325.149536 
	C84.972092,328.512085 87.526367,329.085785 89.397369,330.204742 
	C113.662804,344.716949 137.953857,359.186310 162.233765,373.674377 
	C169.097000,377.769745 169.090042,377.781403 175.468460,371.957581 
M648.518494,212.989288 
	C640.876221,205.571960 633.252258,198.135559 625.580200,190.749161 
	C623.320312,188.573395 621.397522,186.573441 617.424744,188.512558 
	C613.570740,190.393707 613.109375,192.873764 613.312378,196.436249 
	C614.579590,218.677948 615.755432,240.924866 616.973999,263.169373 
	C617.305603,269.221863 623.573120,273.656982 629.288696,271.766296 
	C647.287354,265.812469 665.266174,259.798615 683.236145,253.758850 
	C684.707397,253.264343 686.581604,253.253052 687.561707,250.608490 
	C674.844421,238.357590 661.936035,225.922562 648.518494,212.989288 
M703.417114,725.250977 
	C674.194702,730.528748 644.972290,735.806519 615.271118,741.170715 
	C618.706726,755.865417 621.975952,769.595703 625.079895,783.363281 
	C625.624207,785.777527 626.878906,786.494507 629.124023,786.880859 
	C633.053650,787.557068 637.255188,788.127258 640.382690,790.676758 
	C644.724915,794.216431 647.501404,792.479126 650.862305,789.198364 
	C669.941528,770.574097 689.180176,752.113159 708.346985,733.578552 
	C710.091064,731.891907 711.969788,730.572083 710.365295,727.299377 
	C708.752869,724.010437 706.653687,724.701538 703.417114,725.250977 
M874.103577,439.408905 
	C885.443054,452.251099 896.890564,465.000610 908.042114,478.003998 
	C910.664368,481.061768 912.683777,480.538452 915.721313,479.061493 
	C919.367249,477.288788 917.582397,475.028534 916.815430,472.831635 
	C915.884827,470.165894 914.717163,467.584076 913.710388,464.943634 
	C902.692322,436.046661 891.693115,407.142456 880.653931,378.253540 
	C880.090393,376.778748 879.812195,375.086609 877.707703,374.625702 
	C865.424133,371.935669 865.432556,371.903046 855.408508,380.259308 
	C854.514282,381.004700 853.577881,381.699982 852.691406,382.454132 
	C847.308472,387.033813 841.934265,391.623779 836.273499,396.452209 
	C849.039185,410.958893 861.329590,424.925476 874.103577,439.408905 
M572.134033,748.810974 
	C562.000793,750.655518 551.872559,752.527954 541.732910,754.336670 
	C532.206177,756.036072 532.310913,756.025330 530.690063,765.494324 
	C530.219421,768.243958 530.750244,769.866089 533.312195,771.097107 
	C553.718140,780.901978 574.098022,790.761475 594.455078,800.667542 
	C596.625427,801.723633 598.113281,801.539856 599.548584,799.498535 
	C603.085083,794.468811 607.732178,790.789734 613.521423,788.623474 
	C615.661499,787.822632 616.650879,786.702759 616.037048,784.100464 
	C613.173645,771.960571 610.426453,759.790955 607.844116,747.588318 
	C607.029724,743.739746 605.191589,742.884033 601.485107,743.606567 
	C592.016418,745.452515 582.481018,746.955933 572.134033,748.810974 
M830.471436,226.970703 
	C834.298828,223.269348 838.177429,219.618835 841.929077,215.842239 
	C843.488403,214.272614 845.784546,212.790222 843.909790,209.958221 
	C842.199768,207.375107 840.079102,208.723221 838.119995,209.371933 
	C812.075012,217.996307 786.062988,226.720947 759.982300,235.235413 
	C756.291931,236.440186 755.143005,238.368729 755.273193,242.101334 
	C755.736816,255.398651 756.220703,268.708710 756.067749,282.006744 
	C756.014771,286.613922 758.532410,287.726776 761.652710,289.487457 
	C765.058472,291.409180 766.578979,289.064087 768.394226,287.303802 
	C788.940247,267.380219 809.448608,247.417908 830.471436,226.970703 
M726.554993,511.101562 
	C735.696228,496.389130 744.855286,481.687683 753.965820,466.956207 
	C756.114807,463.481293 753.512634,455.088745 749.714172,454.188538 
	C739.547729,451.779205 729.290955,449.750946 718.306580,447.408478 
	C707.293640,490.194275 694.933594,532.181580 684.335510,574.631653 
	C685.066223,574.935425 685.796936,575.239197 686.527649,575.542969 
	C699.737305,554.264954 712.946960,532.987000 726.554993,511.101562 
M761.290894,391.235748 
	C762.508240,406.643677 763.721375,422.051910 764.947815,437.459106 
	C765.113098,439.535370 764.664856,441.719910 767.414917,442.860443 
	C770.143372,443.992004 772.193237,443.498718 774.175171,441.542297 
	C774.880310,440.846252 775.759766,440.330688 776.524780,439.690979 
	C792.473755,426.352722 808.425171,413.017181 824.349976,399.650024 
	C825.719299,398.500610 827.417786,397.599976 828.210144,395.112549 
	C822.918518,389.134827 817.305115,383.043945 812.003296,376.692993 
	C809.553467,373.758423 806.874878,373.044312 803.241028,373.542389 
	C793.207581,374.917664 783.152771,376.179016 773.076721,377.190033 
	C760.910095,378.410828 760.896912,378.279449 761.290894,391.235748 
M415.541931,203.021561 
	C418.308960,213.817673 421.162476,224.592804 423.789276,235.422928 
	C424.555969,238.584000 425.566925,239.747406 429.217987,239.073242 
	C448.505890,235.511688 467.858978,232.303818 487.186218,228.954269 
	C489.351776,228.578964 492.067688,229.177429 492.586029,225.800522 
	C493.079529,222.585526 491.904144,220.565948 489.072571,218.879669 
	C465.891418,205.074585 442.731598,191.231445 419.710541,177.162262 
	C416.331146,175.096954 414.641571,177.072067 412.213806,178.377518 
	C409.617218,179.773773 409.979553,181.684952 410.556519,183.868637 
	C412.171478,189.981033 413.759003,196.100677 415.541931,203.021561 
M660.449402,727.747620 
	C674.688843,725.183044 688.914307,722.535583 703.178650,720.117859 
	C706.346191,719.580994 707.949036,718.381104 707.934387,715.041260 
	C707.927246,713.411194 708.359375,711.721680 708.891418,710.160889 
	C709.588684,708.115784 708.746765,707.117859 707.042175,706.217163 
	C697.180298,701.005798 687.346680,695.740845 677.517273,690.468323 
	C675.953247,689.629272 674.500732,689.431396 672.789001,690.200317 
	C652.899841,699.135681 632.986511,708.017273 613.079895,716.913818 
	C611.672302,717.542847 610.134033,718.258362 610.550415,720.120667 
	C611.732544,725.408142 613.078918,730.658875 614.449951,736.290833 
	C629.907349,733.404907 644.752686,730.633240 660.449402,727.747620 
M675.779480,171.707367 
	C678.429565,171.955856 681.084351,172.162567 683.729004,172.459488 
	C703.565247,174.686508 723.403076,176.901093 743.229919,179.209106 
	C745.689026,179.495361 746.656677,178.634140 746.636169,176.293182 
	C746.599792,172.129272 746.644897,167.963562 746.537476,163.801666 
	C746.427246,159.533691 745.900879,155.651855 740.914673,153.835632 
	C738.470520,152.945343 736.692017,150.517075 735.727234,147.969437 
	C734.449768,144.596252 732.345215,144.255264 729.035217,144.875549 
	C719.895874,146.588257 710.675903,147.870239 701.488464,149.326950 
	C679.980042,152.737198 658.470703,156.141464 636.965698,159.573364 
	C634.455444,159.973984 631.979858,160.342239 632.259888,164.000473 
	C632.513062,167.308289 634.686340,167.429504 637.125000,167.677597 
	C649.710327,168.957870 662.288635,170.306656 675.779480,171.707367 
M755.344788,227.244736 
	C755.734131,229.760727 757.469482,228.851212 758.775879,228.452652 
	C762.591675,227.288513 766.363342,225.979858 770.151001,224.723801 
	C791.765686,217.555969 813.383423,210.397400 834.989380,203.203217 
	C837.329651,202.423965 839.432922,201.766388 839.763428,198.386093 
	C840.372314,192.158432 835.935913,192.790192 832.365173,192.370117 
	C812.251404,190.003922 792.141541,187.578613 771.991455,185.562759 
	C766.327026,184.996063 760.636230,183.371399 754.251770,184.490829 
	C755.286133,198.620728 755.183044,212.552734 755.344788,227.244736 
M339.669678,260.251648 
	C338.041382,260.565674 336.424377,260.972565 334.782166,261.171875 
	C332.338898,261.468414 330.314301,261.740448 330.262878,265.127441 
	C330.207336,268.785217 332.687408,269.124725 335.101746,269.556152 
	C363.894653,274.701477 392.705231,279.748322 421.485168,284.964539 
	C424.035583,285.426758 425.126709,284.375732 426.925720,282.912689 
	C430.401123,280.086334 430.487823,277.240265 429.254517,273.378021 
	C427.688873,268.474976 426.708649,263.384857 425.479309,258.374573 
	C422.569244,246.514694 422.542450,246.346481 410.789581,248.273041 
	C387.338257,252.117249 363.920380,256.165375 339.669678,260.251648 
M697.923035,260.591766 
	C695.709717,257.566711 693.097473,257.516388 689.655945,258.697876 
	C670.302185,265.342072 650.863098,271.737457 631.466492,278.257568 
	C630.007263,278.748077 628.177490,278.709747 626.955872,281.228516 
	C662.149658,288.396759 697.030762,295.501312 731.370117,302.495514 
	C734.920410,297.814789 733.913757,295.035706 730.497925,291.870819 
	C719.629822,281.800995 709.093140,271.373413 697.923035,260.591766 
M805.657104,635.189819 
	C807.400696,633.220581 809.144226,631.251343 810.887756,629.282104 
	C810.756836,629.069946 810.625854,628.857849 810.494934,628.645752 
	C778.872559,642.783630 747.250183,656.921448 715.117859,671.287354 
	C718.523193,677.974670 721.719910,683.949463 724.612976,690.067810 
	C725.964783,692.926575 727.877869,693.981750 730.904175,693.681580 
	C735.158569,693.259705 739.324036,693.973877 742.885132,696.286804 
	C746.041260,698.336670 747.833130,697.235596 750.051331,694.843811 
	C768.377686,675.083313 786.806030,655.417480 805.657104,635.189819 
M612.940796,709.296509 
	C630.621094,701.371704 648.301453,693.446899 667.280945,684.939758 
	C642.123047,671.475403 618.216675,658.680908 593.423828,645.411926 
	C598.284729,666.791870 602.911743,687.138367 607.535400,707.485596 
	C608.179382,710.319946 609.813599,710.877747 612.940796,709.296509 
M435.690521,340.755402 
	C456.276672,353.026184 476.855347,365.309570 497.465240,377.540375 
	C498.895935,378.389435 500.382111,380.190155 502.278961,378.155457 
	C504.366180,375.916718 502.358673,374.526276 501.173920,373.066315 
	C492.677673,362.596313 484.136200,352.162964 475.618134,341.710602 
	C465.207550,328.935974 454.727783,316.216309 444.460419,303.327484 
	C442.169495,300.451660 439.867096,300.503754 436.622284,301.009033 
	C433.364319,301.516357 433.184631,303.606171 432.667603,305.832001 
	C431.200653,312.147156 429.766266,318.469849 428.310089,324.787537 
	C425.952881,335.014282 425.949860,335.013580 435.690521,340.755402 
M733.434082,391.863159 
	C729.581787,406.331177 725.753052,420.805573 721.856812,435.261749 
	C721.101990,438.062073 720.547607,440.655334 724.367615,441.467377 
	C733.156799,443.335724 741.935547,445.267334 750.764832,446.926758 
	C755.149048,447.750763 760.907593,442.031281 760.564575,437.666138 
	C759.287415,421.414795 757.985962,405.164978 756.817993,388.905670 
	C756.130188,379.330444 756.235596,379.322906 746.957458,380.197144 
	C736.676208,381.165924 736.676208,381.165924 733.434082,391.863159 
M518.610107,248.580994 
	C517.695801,256.947510 519.983887,265.097504 520.290710,273.385162 
	C520.601746,281.786652 521.299744,282.199585 529.775940,281.699097 
	C546.231201,280.727478 562.700562,279.993256 579.155762,279.020996 
	C586.707520,278.574799 594.363037,279.232239 602.308777,276.736633 
	C602.016846,276.019257 601.330994,275.899719 600.732056,275.604095 
	C577.730286,264.251190 554.731750,252.891510 531.751526,241.495087 
	C530.151306,240.701523 528.931641,240.888443 527.761353,242.183990 
	C525.358826,244.843689 522.063782,246.175308 518.610107,248.580994 
M869.491821,321.882843 
	C863.070862,321.034332 856.658508,320.113434 850.227417,319.350067 
	C825.494324,316.414398 800.756775,313.515686 776.015076,310.652893 
	C774.190552,310.441772 772.034973,309.505005 770.762573,311.844299 
	C770.989136,313.896545 772.725769,314.069550 774.008911,314.617523 
	C802.319153,326.708344 830.645081,338.762573 858.968079,350.823547 
	C860.348022,351.411194 861.709229,352.054626 863.280640,351.505493 
	C869.459290,349.346405 872.827148,344.378174 872.714478,337.555664 
	C872.686951,335.891205 872.986328,334.132446 872.550110,332.581726 
	C871.586365,329.156219 873.125671,325.179230 869.491821,321.882843 
M486.416748,283.782257 
	C494.715149,283.420807 503.012390,283.028076 511.312653,282.715912 
	C513.996155,282.614990 515.914978,281.912689 515.601379,278.694733 
	C514.717285,269.623169 513.859497,260.548981 512.950134,251.479980 
	C512.818665,250.168518 512.651184,248.610382 510.961243,248.414505 
	C505.485260,247.779785 501.095947,244.858246 496.920319,241.356873 
	C479.747925,255.720734 462.958008,269.764679 446.168091,283.808624 
	C446.437012,284.377655 446.705963,284.946686 446.974884,285.515717 
	C459.824066,285.944977 472.613037,283.900665 486.416748,283.782257 
M823.388428,187.966431 
	C827.685608,188.468750 831.998047,188.870102 836.274109,189.512680 
	C838.691223,189.875900 839.389282,188.739395 840.019836,186.684174 
	C841.106995,183.140335 838.308716,182.785950 836.353638,181.909317 
	C815.543213,172.578049 794.561035,163.613098 773.954834,153.853226 
	C767.560425,150.824600 762.615662,149.854050 757.064148,154.973404 
	C755.280212,156.618484 754.227173,157.889374 754.268494,160.256912 
	C754.361511,165.584839 754.444397,170.919037 754.281677,176.243042 
	C754.185364,179.393097 755.321777,180.540924 758.525452,180.875397 
	C779.851135,183.101822 801.154907,185.538696 823.388428,187.966431 
M442.200592,242.960312 
	C437.165649,243.782867 432.073975,244.339905 426.720886,246.081711 
	C429.154510,255.566696 431.509399,264.867554 433.934296,274.150085 
	C435.401154,279.765381 442.645294,282.150482 447.109650,278.465668 
	C461.980164,266.191864 476.821381,253.882538 491.652893,241.561615 
	C493.129181,240.335251 495.113373,239.317459 494.113007,236.725082 
	C492.994263,233.826035 490.761963,234.593964 488.656555,234.951492 
	C473.448029,237.534088 458.242218,240.132584 442.200592,242.960312 
M262.819946,246.249817 
	C265.297913,247.537537 267.137421,246.987411 268.716949,244.606491 
	C271.231049,240.816895 274.463379,237.648239 278.488373,235.510239 
	C281.588531,233.863464 281.909454,231.636566 281.306732,228.466080 
	C278.022369,211.189911 274.872986,193.887497 271.801880,176.572021 
	C271.388062,174.238785 271.146454,172.430893 268.153717,172.290970 
	C265.230499,172.154297 264.007080,173.510254 263.303955,176.117447 
	C257.852478,196.331284 252.363480,216.535202 246.789871,236.715637 
	C246.122375,239.132431 246.559738,240.421371 249.018173,241.237167 
	C253.434753,242.702682 257.776337,244.394241 262.819946,246.249817 
M856.645264,358.546417 
	C858.014404,357.942810 859.940063,358.515411 861.218262,356.160309 
	C830.201965,343.041443 799.459778,330.038513 767.638062,316.578979 
	C768.380798,320.005676 769.745850,321.035492 770.809448,322.242523 
	C781.379272,334.238068 792.289001,345.955963 802.378296,358.342346 
	C806.561523,363.477814 810.831482,364.110016 816.716431,363.279144 
	C829.717712,361.443512 842.796265,360.154694 856.645264,358.546417 
M726.692017,278.806152 
	C729.835510,281.771362 732.986084,284.729095 736.119507,287.704956 
	C737.680481,289.187439 739.101562,291.107269 741.621704,289.426178 
	C744.273682,287.657166 748.258728,287.700531 748.035645,282.559418 
	C747.538513,271.106384 747.784729,259.622345 747.626404,248.152328 
	C747.590698,245.566010 748.223938,242.888168 746.838989,239.790375 
	C732.094177,244.701736 717.420044,249.589539 704.007996,254.056961 
	C711.433960,262.179077 718.809937,270.246460 726.692017,278.806152 
M161.268982,390.769501 
	C142.368896,408.196808 123.468803,425.624115 104.568718,443.051422 
	C107.510223,442.696472 109.901062,441.608673 112.236374,440.412476 
	C122.462708,435.174194 132.667450,429.893768 142.890396,424.648834 
	C156.965958,417.427307 171.053726,410.229553 185.129150,403.007721 
	C187.647537,401.715607 190.011948,400.576996 190.137085,396.934357 
	C190.266785,393.158966 187.187119,392.923065 185.244003,391.423859 
	C183.934860,390.413757 182.397675,389.702087 180.977097,388.833099 
	C170.719360,382.558167 170.720535,382.556244 161.268982,390.769501 
M351.078339,326.517090 
	C358.704712,322.968506 366.331116,319.419891 374.883942,315.440186 
	C370.326294,312.700195 366.430084,310.809570 363.051453,308.238739 
	C354.232574,301.528381 344.609833,298.849823 333.700012,301.330383 
	C328.146423,302.593109 322.158600,301.321747 316.290649,303.888519 
	C320.453766,314.032257 324.414490,323.695374 328.387146,333.353546 
	C329.384766,335.778839 330.987671,335.910492 333.204590,334.835999 
	C338.890961,332.079987 344.649963,329.473755 351.078339,326.517090 
M214.533890,335.945496 
	C219.747345,328.549652 220.249374,319.744934 223.063309,310.568817 
	C208.679077,311.839935 195.500992,313.033936 182.316284,314.149353 
	C178.943741,314.434692 179.210526,316.326294 179.960999,318.684967 
	C182.881668,327.864197 185.733673,337.065338 188.673248,346.238434 
	C189.665070,349.333466 190.098618,352.672058 192.622070,356.069427 
	C199.907181,349.385498 206.959183,342.915436 214.533890,335.945496 
M791.676514,353.808044 
	C783.403992,344.448273 775.128052,335.091492 766.861877,325.726105 
	C765.326111,323.986053 764.116211,321.930054 761.165833,323.862701 
	C758.703247,325.475800 755.903076,326.086212 756.353271,330.284058 
	C757.611145,342.013000 758.476868,353.788422 759.256897,365.561401 
	C759.480347,368.934509 760.880554,369.917297 763.984070,369.541321 
	C775.200562,368.182617 786.425903,366.896057 797.645447,365.562592 
	C798.642700,365.444061 799.640808,365.208344 800.034729,363.417938 
	C797.546509,360.565765 794.836914,357.459930 791.676514,353.808044 
M899.527771,325.160706 
	C893.568970,324.500610 887.615234,323.787262 881.648193,323.212891 
	C879.860168,323.040771 877.180176,322.933289 877.511414,325.452881 
	C878.605530,333.777039 873.431946,344.189362 884.974915,349.265930 
	C885.544983,349.516632 886.024658,350.109619 886.398071,350.646454 
	C887.811157,352.677765 889.562988,352.648926 891.663391,351.826599 
	C904.535583,346.786713 917.431519,341.807495 930.314514,336.795013 
	C932.232239,336.048889 934.092163,335.330322 933.250061,332.526947 
	C932.598389,330.357635 932.101074,328.590179 929.215820,328.326172 
	C919.609436,327.447266 910.028259,326.293915 899.527771,325.160706 
M209.853622,372.171448 
	C209.070007,375.231720 207.729691,378.185211 207.754120,382.487671 
	C226.478622,357.377380 244.596924,333.080048 263.470734,307.769531 
	C257.414337,308.338928 252.476318,306.755493 248.419586,310.494537 
	C239.373505,318.832306 230.348358,327.192780 221.313049,335.542236 
	C219.816376,336.925323 218.789520,338.524750 218.261383,340.560547 
	C215.591049,350.853821 212.818298,361.120514 209.853622,372.171448 
M228.136490,291.798645 
	C228.671860,289.108521 230.141830,286.566956 229.713333,283.389069 
	C214.874817,287.161072 200.369339,290.833405 185.874161,294.545807 
	C182.974243,295.288513 180.141068,296.304413 177.226334,296.972839 
	C174.697266,297.552826 173.879944,298.830383 174.739838,301.273529 
	C175.292450,302.843689 175.896912,304.421753 176.200409,306.048126 
	C176.905121,309.824615 178.868011,311.233276 182.825165,310.812836 
	C192.251389,309.811279 201.771103,309.556244 211.140686,308.214783 
	C215.422028,307.601837 221.057343,309.954834 223.792053,305.821198 
	C226.243469,302.115814 226.619934,297.037659 228.136490,291.798645 
M378.096130,282.513214 
	C363.566772,279.867737 349.042053,277.196198 334.501801,274.612091 
	C332.812531,274.311829 330.543793,273.408173 329.605438,275.601746 
	C328.617432,277.911285 330.904327,278.690826 332.406311,279.605560 
	C336.385376,282.028839 340.621521,284.087402 344.371124,286.818634 
	C353.731567,293.636780 363.445099,296.868988 375.485748,294.934875 
	C390.378510,292.542633 405.577148,292.054749 420.643646,290.744049 
	C420.635345,290.558685 420.627075,290.373352 420.618774,290.187988 
	C406.719452,287.708893 392.820129,285.229767 378.096130,282.513214 
M557.496033,601.375122 
	C552.343628,601.366516 547.184021,601.185425 542.040771,601.398315 
	C537.013062,601.606323 531.774780,600.318237 526.920044,602.118591 
	C526.840088,602.685486 526.760193,603.252441 526.680237,603.819397 
	C544.397156,613.328613 562.114075,622.837830 580.580200,632.749207 
	C580.316711,626.359558 578.703186,621.310181 577.371704,616.275146 
	C576.113281,611.516724 577.018311,605.219666 573.102905,602.365845 
	C569.281433,599.580566 563.436401,601.703003 557.496033,601.375122 
M259.880432,294.383942 
	C262.167847,292.198822 264.460602,290.019226 266.740601,287.826385 
	C267.985748,286.628815 269.043213,285.438995 267.922852,283.503906 
	C266.270935,280.650665 264.759552,277.716034 263.026611,274.517639 
	C254.228622,276.858612 245.576080,279.170746 236.916885,281.457703 
	C234.870468,281.998138 234.005997,283.498260 233.502853,285.364746 
	C231.943665,291.148651 230.470139,296.958252 228.768097,302.700012 
	C227.734741,306.186005 229.384354,306.816742 232.284012,306.649963 
	C241.460617,306.122192 250.673630,305.765289 256.719513,297.136810 
	C257.366180,296.213959 258.467255,295.609528 259.880432,294.383942 
M419.702911,298.397125 
	C409.524323,303.088837 399.345734,307.780548 388.335968,312.855377 
	C399.995850,319.717041 410.753265,326.047607 422.221771,332.796631 
	C424.470428,322.586609 426.513519,313.398010 428.507751,304.198822 
	C429.070557,301.602570 429.693756,299.026001 427.065918,296.930939 
	C424.269135,294.701172 422.563232,297.584259 419.702911,298.397125 
M861.128296,366.893280 
	C846.101562,368.481384 831.073792,370.061829 815.195496,372.583466 
	C819.100403,377.056549 822.096924,380.615112 825.227539,384.051544 
	C834.300171,394.010590 831.313965,393.245972 841.076904,385.571198 
	C841.993774,384.850372 842.961975,384.175171 843.783264,383.355499 
	C849.482178,377.667847 856.887268,373.853241 861.128296,366.893280 
M549.578369,747.701111 
	C551.541016,747.364502 553.506165,747.041931 555.465881,746.689087 
	C570.342407,744.010071 585.222107,741.347839 600.089478,738.618896 
	C602.508972,738.174805 605.435181,737.871338 604.647034,734.176514 
	C603.827881,730.335938 603.440430,726.342590 601.103699,722.213318 
	C581.884399,730.834229 562.800598,739.394409 543.716797,747.954590 
	C543.799683,748.192444 543.882568,748.430359 543.965515,748.668274 
	C545.573364,748.378906 547.181274,748.089539 549.578369,747.701111 
M243.723175,248.506775 
	C241.079254,257.296417 238.342987,266.063599 236.468323,275.400696 
	C241.636871,275.518799 245.615646,273.641571 249.755966,272.633667 
	C262.302704,269.579407 262.287445,269.519714 263.154449,256.918060 
	C263.177185,256.587494 263.267944,256.262085 263.315155,255.932587 
	C263.474426,254.820938 263.121094,253.826080 262.058685,253.493271 
	C256.113739,251.630814 250.681900,248.095551 243.723175,248.506775 
M143.222198,305.809204 
	C128.498718,309.627411 113.775246,313.445648 99.051765,317.263885 
	C108.257874,316.962616 117.367409,316.344971 126.468498,315.621124 
	C139.231644,314.606079 152.001144,313.636353 164.736908,312.341919 
	C167.148834,312.096741 171.495743,313.132233 170.520996,307.853729 
	C169.155518,300.459198 168.018936,299.440369 162.385345,300.886261 
	C156.263351,302.457489 150.136169,304.008392 143.222198,305.809204 
M682.561768,687.036316 
	C691.534180,692.010925 700.518188,696.964722 709.470825,701.974670 
	C711.725769,703.236694 713.207642,702.190247 714.649597,700.601624 
	C716.077209,699.028809 717.827393,697.763855 716.358459,695.103210 
	C713.236084,689.447876 710.350830,683.661438 707.380554,677.922424 
	C706.621033,676.455017 705.674255,675.391541 703.864441,676.279297 
	C696.760742,679.764343 689.143860,682.174377 682.561768,687.036316 
M393.620941,296.302948 
	C384.509644,297.103119 375.398346,297.903290 364.844208,298.830170 
	C371.861206,303.029297 377.554993,306.437592 383.250031,309.843781 
	C384.311523,310.478607 385.400452,310.662048 386.575409,310.116730 
	C397.437775,305.075470 408.304443,300.043457 419.169830,295.008759 
	C419.070251,294.737518 418.970673,294.466309 418.871063,294.195068 
	C410.763885,294.887726 402.656677,295.580414 393.620941,296.302948 
M741.454712,362.841370 
	C741.131287,365.600250 739.472168,368.106232 739.812195,371.196442 
	C743.668945,372.490082 747.358582,370.618073 751.090454,370.773010 
	C754.344299,370.908051 755.363098,369.366547 755.119812,366.181580 
	C754.464111,357.598846 754.125732,348.992249 753.514709,340.405579 
	C753.199829,335.980530 752.572693,331.577698 752.086670,327.164856 
	C751.732666,327.147369 751.378662,327.129883 751.024597,327.112396 
	C747.913879,338.765717 744.803101,350.419037 741.454712,362.841370 
M194.010834,361.149872 
	C195.440582,369.745880 198.175842,377.911102 201.315399,385.942902 
	C201.747116,385.901215 202.178818,385.859528 202.610519,385.817810 
	C206.489807,371.443512 210.369095,357.069183 214.530350,341.650024 
	C207.213776,348.503967 200.778290,354.532501 194.010834,361.149872 
M181.600952,372.109680 
	C179.137054,374.899475 175.794525,376.894562 173.671600,380.517395 
	C179.034729,383.742279 184.133514,386.809387 189.233749,389.874115 
	C190.461639,390.612000 191.653915,390.866211 192.885178,389.807587 
	C194.088699,388.772766 195.012772,387.631958 194.488022,385.949005 
	C192.490326,379.542114 190.452301,373.147827 188.387207,366.615540 
	C185.401596,367.914551 184.011581,370.082184 181.600952,372.109680 
M315.733429,293.095062 
	C314.322113,294.115784 312.339447,294.711700 313.364044,297.242371 
	C314.246796,299.422668 315.756012,299.557800 317.773224,299.306152 
	C320.890594,298.917267 324.093811,299.073059 327.165222,298.492706 
	C331.925049,297.593353 337.005249,298.757568 342.477905,296.215546 
	C339.573364,294.481934 337.377289,293.116760 335.129791,291.842377 
	C331.679596,289.886047 328.327850,286.827393 324.684692,286.408752 
	C321.241119,286.013031 319.581024,291.107697 315.733429,293.095062 
M222.441925,328.536591 
	C229.067490,322.484833 235.693054,316.433075 243.377625,309.414032 
	C237.714661,309.530365 233.800903,309.225708 229.852966,310.044037 
	C227.586411,310.513885 226.309525,311.535522 225.765060,313.714355 
	C224.529205,318.659760 223.246475,323.593445 222.441925,328.536591 
M291.794037,298.292969 
	C289.850830,297.942566 287.862061,297.751923 285.972687,297.212891 
	C279.436462,295.348053 279.310852,295.369232 275.980713,302.666931 
	C286.225006,301.613098 296.212982,302.080322 305.894531,299.660248 
	C305.868744,299.207306 305.842957,298.754364 305.817169,298.301422 
	C301.451385,298.301422 297.085602,298.301422 291.794037,298.292969 
M266.555054,294.088440 
	C263.149353,297.061890 259.531433,299.825806 256.501892,303.611176 
	C263.164124,304.949158 268.058899,303.391907 271.022919,297.539490 
	C272.170898,295.272827 276.410828,293.323151 273.572845,290.609283 
	C270.535156,287.704437 269.270142,292.505981 266.555054,294.088440 
z"/>
</svg>